music_brightman:
	music_header
	.DBYT music_brightman_pulse_1
	.DBYT music_brightman_pulse_2
	.DBYT music_brightman_triangle
	.DBYT music_brightman_noise

;reset
	.FEATURE FORCE_RANGE
	current_global_transpose .SET 0

music_brightman_pulse_1:
	current_octave_jump .SET 0
	current_octave .SET 0
	current_channel_transpose .SET 0
	tempo $01, $EB
	global_transpose -3
	note_ads $C8
	rest 64
	rest 64

music_brightman_pulse_1_main:
	channel_flags no_channel_flags_set

music_brightman_pulse_1_loop_1:
	channel_flags no_channel_flags_set
	octave 2
	volume 12
	note_ads $AA
	instrument 2
	duty_cycle 3
	note B_3, 16
	note B_3, 4
	note Db4, 4
	rest 4
	connect_note_set
	note D_4, 16
	connect_note_set
	note D_4, 4
	octave_jump
	note E_4, 16
	note Db4, 4
	note B_3, 4
	rest 4
	dotted_note_set
	note A_3, 8
	note Db5, 4
	note B_4, 4
	rest 4
	note A_4, 16
	dotted_note_set
	rest 8
	octave_jump
	note G_3, 4
	note A_3, 4
	rest 4
	connect_note_set
	note B_3, 16
	connect_note_set
	note B_3, 4
	break_1 no_channel_flags_set, music_brightman_pulse_1_break_1
	note A_3, 4
	note B_3, 4
	rest 4
	note Db4, 16
	note A_3, 4
	note B_3, 4
	rest 4
	note D_4, 4
	rest 4
	note Db4, 4
	rest 4
	note A_3, 4
	note B_3, 4
	rest 4
	octave_jump
	note B_4, 4
	rest 4
	note B_4, 8
	note A_4, 4
	note Db5, 4
	rest 4
	loop_1 1, music_brightman_pulse_1_loop_1

music_brightman_pulse_1_break_1:
	current_octave_jump .SET 0
	note D_4, 4
	note Db4, 4
	rest 4
	octave_jump
	note E_4, 16
	note F_4, 4
	note Gb4, 4
	rest 4
	note Gb4, 4
	rest 8
	note A_4, 4
	rest 4
	note Bb4, 4
	note B_4, 16
	rest 16
	channel_transpose 0
	note_ads $00
	note_ads $DC
	duty_cycle 3
	volume 14
	instrument 7
	rest 16
	octave_jump
	note Db3, 16
	dotted_note_set
	note Ab2, 8
	dotted_note_set
	note Db3, 8
	note Bb3, 8
	dotted_note_set
	note Ab3, 16
	note Gb3, 16
	note F_3, 16
	note Gb3, 8
	dotted_note_set
	note Ab3, 16
	connect_note_set
	note Db3, 32
	connect_note_set
	note Db3, 8
	volume 12
	note_ads $C8
	instrument 3
	note Db3, 16
	note Eb3, 16
	note E_3, 16
	note Gb3, 16
	volume 14
	note_ads $DC
	instrument 7
	note E_3, 8
	rest 8
	note E_3, 16
	dotted_note_set
	note B_2, 8
	dotted_note_set
	note E_3, 8
	note B_3, 8
	dotted_note_set
	note Bb3, 16
	dotted_note_set
	note Ab3, 16
	note Gb3, 16
	note A_3, 32
	note Gb3, 16
	note Db4, 16
	dotted_note_set
	note Ab3, 16
	rest 8
	note Ab3, 16
	note Bb3, 16
	note B_3, 16
	rest 8
	dotted_note_set
	note E_3, 8
	dotted_note_set
	note B_3, 8
	note B_3, 4
	rest 4
	note Db4, 4
	rest 4
	note Db4, 16
	rest 8
	dotted_note_set
	note Gb3, 8
	dotted_note_set
	note Bb3, 8
	note B_3, 4
	rest 4
	note Db4, 4
	rest 4
	dotted_note_set
	connect_note_set
	note Db4, 32
	connect_note_set
	note Db4, 8
	note Ab3, 8
	dotted_note_set
	connect_note_set
	octave_jump
	note Ab4, 32
	connect_note_set
	note Ab4, 16
	channel_transpose 2
	music_jump music_brightman_pulse_1_main
	music_end

music_brightman_pulse_2:
	current_octave_jump .SET 0
	current_octave .SET 0
	current_channel_transpose .SET 0
	pitch_tune $FF
	rest 64
	rest 64

music_brightman_pulse_2_main:
	channel_flags no_channel_flags_set

music_brightman_pulse_2_loop_1:
	channel_flags no_channel_flags_set
	volume 10
	octave 1
	note_ads $FF
	duty_cycle 2
	instrument 2
	note D_3, 64
	dotted_note_set
	note Db3, 16
	duty_cycle 1
	octave_jump
	note E_4, 4
	note D_4, 4
	rest 4
	note Db4, 16
	dotted_note_set
	rest 8
	duty_cycle 2
	note B_2, 32
	note Db3, 32
	break_1 channel_octave_jump_set, music_brightman_pulse_2_break_1
	note D_3, 8
	rest 16
	note D_3, 8
	rest 4
	duty_cycle 1
	note D_4, 4
	rest 4
	note D_4, 8
	note Db4, 4
	note E_4, 4
	rest 4
	loop_1 1, music_brightman_pulse_2_loop_1

music_brightman_pulse_2_break_1:
	current_octave_jump .SET 1
	duty_cycle 1
	note D_3, 4
	note D_3, 4
	dotted_note_set
	rest 8
	note Eb3, 4
	rest 4
	note Eb3, 4
	rest 16
	rest 4
	dotted_note_set
	note Eb3, 8
	channel_transpose 0
	instrument 5
	duty_cycle 2
	dotted_note_set
	connect_note_set
	note F_3, 32
	connect_note_set
	note F_3, 4
	dotted_note_set
	note F_3, 8
	dotted_note_set
	connect_note_set
	note Eb3, 32
	connect_note_set
	note Eb3, 4
	dotted_note_set
	note Eb3, 8

music_brightman_pulse_2_loop_2:
	channel_flags no_channel_flags_set
	duty_cycle 1
	rest 8
	note Db3, 4
	rest 4
	note Db3, 4
	dotted_note_set
	note Eb3, 8
	loop_1 1, music_brightman_pulse_2_loop_2
	octave_jump
	note E_3, 16
	note Gb3, 16
	note Ab3, 16
	note A_3, 16
	duty_cycle 2
	dotted_note_set
	connect_note_set
	note B_3, 32
	connect_note_set
	note B_3, 4
	dotted_note_set
	note B_3, 8
	dotted_note_set
	connect_note_set
	note Bb3, 32
	connect_note_set
	note Bb3, 4
	dotted_note_set
	note Bb3, 8
	dotted_note_set
	connect_note_set
	note Gb3, 32
	connect_note_set
	note Gb3, 4
	dotted_note_set
	note A_3, 8
	rest 4
	dotted_note_set
	note Ab3, 8
	note Ab3, 4
	rest 4
	note Bb3, 4
	rest 8
	dotted_note_set
	note Ab3, 8
	note Ab3, 4
	rest 4
	note Bb3, 4
	rest 4
	dotted_note_set
	connect_note_set
	note Ab3, 32
	connect_note_set
	note Ab3, 4
	dotted_note_set
	note Ab3, 8
	dotted_note_set
	connect_note_set
	note Bb3, 32
	connect_note_set
	note Bb3, 4
	dotted_note_set
	note Bb3, 8
	dotted_note_set
	connect_note_set
	note Ab3, 32
	connect_note_set
	note Ab3, 4
	dotted_note_set
	note Db4, 8
	duty_cycle 1
	dotted_note_set
	note Eb4, 8
	note Eb4, 4
	rest 16
	note Eb4, 4
	note Eb4, 4
	dotted_note_set
	rest 16
	channel_transpose 2
	music_jump music_brightman_pulse_2_main
	music_end

music_brightman_triangle:
	current_octave_jump .SET 0
	current_octave .SET 0
	current_channel_transpose .SET 0
	note_ads $C8
	instrument 0
	octave 2
	rest 16
	instrument 4
	octave_jump
	note A_4, 4
	note A_4, 4
	note A_4, 4
	note A_4, 4
	note E_4, 4
	note E_4, 4
	note E_4, 4
	note E_4, 4
	note B_3, 4
	note B_3, 4
	rest 4
	note B_3, 4
	instrument 0
	octave 3
	rest 4
	note A_4, 4
	note B_4, 4
	rest 4
	octave_jump
	note A_3, 4
	note Bb3, 4
	rest 4
	note E_4, 4
	note Eb4, 4
	note B_3, 4
	note A_3, 4
	note B_3, 4
	note Gb3, 4
	note Gb4, 4
	note Bb4, 4
	note B_4, 4

music_brightman_triangle_main:
	channel_flags no_channel_flags_set

music_brightman_triangle_loop_1:
	channel_flags no_channel_flags_set
	note_ads $DC
	note B_3, 4
	rest 4
	note B_3, 4
	rest 4
	note Gb4, 8
	note B_3, 4
	note B_3, 4
	rest 4
	note B_3, 4
	rest 4
	note B_3, 4
	note Gb4, 8
	note B_3, 8
	note A_3, 4
	rest 4
	note A_3, 4
	rest 4
	note E_4, 8
	note A_3, 4
	note A_3, 4
	rest 4
	note A_3, 4
	rest 4
	note A_3, 4
	note E_4, 8
	note A_3, 8
	note G_3, 4
	rest 4
	note G_3, 4
	rest 4
	note D_4, 8
	note G_3, 4
	note G_3, 4
	rest 4
	note Ab3, 4
	rest 4
	note A_3, 4
	note E_4, 8
	note Db4, 8
	break_1 no_channel_flags_set, music_brightman_triangle_break_1
	note D_4, 4
	rest 4
	note Gb4, 4
	rest 4
	note E_4, 8
	note Db4, 4
	note D_4, 4
	rest 4
	note B_3, 4
	rest 4
	note B_3, 4
	rest 4
	note B_3, 4
	note B_3, 4
	note A_3, 4
	loop_1 1, music_brightman_triangle_loop_1

music_brightman_triangle_break_1:
	current_octave_jump .SET 0
	note B_3, 4
	rest 4
	note D_4, 4
	rest 8
	note Db4, 4
	rest 4
	note Db4, 4
	note Eb4, 16
	instrument 4
	note Db5, 8
	rest 4
	note F_4, 4

music_brightman_triangle_loop_2:
	channel_flags no_channel_flags_set
	channel_transpose 0
	instrument 0
	dotted_note_set
	note Db4, 8
	note Db4, 4
	rest 4
	note Db4, 4
	rest 8
	note Db4, 4
	note B_4, 4
	note Db5, 4
	rest 4
	note B_4, 4
	note Db5, 4
	rest 4
	note B_3, 4
	loop_1 1, music_brightman_triangle_loop_2

music_brightman_triangle_loop_3:
	channel_flags no_channel_flags_set
	note A_3, 8
	rest 4
	note A_3, 4
	rest 4
	dotted_note_set
	note B_3, 8
	loop_1 2, music_brightman_triangle_loop_3
	note E_3, 4
	note Db4, 4
	note C_4, 4
	note Db4, 4
	note Eb4, 4
	note E_4, 8
	note E_3, 4
	dotted_note_set
	note E_4, 8
	note E_4, 4
	rest 4
	note E_4, 4
	rest 8
	note E_4, 4
	note D_5, 4
	octave_jump
	note E_5, 4
	rest 4
	note D_5, 4
	note E_5, 4
	rest 4
	octave_jump
	note D_4, 4
	dotted_note_set
	note Eb4, 8
	note Eb4, 4
	rest 4
	note Eb4, 4
	rest 8
	note Eb4, 4
	note Db5, 4
	note Eb5, 4
	rest 4
	note Db5, 4
	note Eb5, 4
	rest 4
	note Eb4, 4
	dotted_note_set
	note Gb3, 8
	note Gb3, 4
	rest 4
	note Gb3, 4
	rest 8
	note Gb3, 4
	note E_4, 4
	note Gb4, 4
	rest 4
	note E_4, 4
	note Gb4, 4
	rest 4
	note Gb3, 4
	dotted_note_set
	note Db4, 8
	note Db4, 4
	rest 4
	note Db4, 4
	rest 8
	note Db4, 4
	note B_4, 4
	note Db5, 4
	rest 4
	note B_4, 4
	note Db5, 4
	rest 4
	note B_3, 4
	dotted_note_set
	note E_4, 8
	note E_4, 4
	rest 4
	note E_4, 4
	rest 8
	note E_4, 4
	note D_5, 4
	octave_jump
	note E_5, 4
	rest 4
	note D_5, 4
	note E_5, 4
	rest 4
	octave_jump
	note D_4, 4
	dotted_note_set
	note Gb4, 8
	note Gb4, 4
	rest 4
	note Gb4, 4
	rest 8
	note Gb4, 4
	octave_jump
	note E_5, 4
	note Gb5, 4
	rest 4
	note E_5, 4
	note Gb5, 4
	rest 4
	octave_jump
	note Gb4, 4
	dotted_note_set
	note Ab3, 8
	note Ab3, 4
	rest 4
	note Ab3, 4
	rest 8
	note Ab3, 4
	note Gb4, 4
	note Ab4, 4
	rest 4
	note Gb4, 4
	note Ab4, 4
	rest 4
	note Ab3, 4
	dotted_note_set
	note Ab3, 8
	note Ab4, 4
	rest 16
	rest 4
	note G_4, 4
	note Ab4, 4
	note Ab3, 4
	note A_3, 4
	note Bb3, 4
	note B_3, 4
	note Db4, 4
	channel_transpose 2
	music_jump music_brightman_triangle_main
	music_end

music_brightman_noise:
	volume 9
	instrument 1
	rest 64
	note_ads $B4
	noise_note 9, 16
	noise_note 9, 16
	noise_note 9, 16
	note_ads $C8
	noise_note 7, 4
	noise_note 7, 4
	noise_note 7, 4
	noise_note 7, 4

music_brightman_noise_main:
	channel_flags no_channel_flags_set

music_brightman_noise_loop_4:
	channel_flags no_channel_flags_set

music_brightman_noise_loop_2:
	channel_flags no_channel_flags_set
	note_ads $C8
	volume 6
	noise_note 12, 4
	noise_note 12, 4
	noise_note 12, 4
	noise_note 12, 4
	note_ads $64
	volume 10
	noise_note 12, 8

music_brightman_noise_loop_1:
	channel_flags no_channel_flags_set
	note_ads $96
	volume 7
	noise_note 12, 4
	volume 8
	noise_note 7, 4
	loop_1 2, music_brightman_noise_loop_1
	note_ads $64
	volume 10
	noise_note 5, 8
	note_ads $C8
	noise_note 12, 4
	noise_note 12, 4
	loop_2 2, music_brightman_noise_loop_2

music_brightman_noise_loop_3:
	channel_flags no_channel_flags_set
	noise_note 5, 4
	noise_note 12, 4
	loop_1 3, music_brightman_noise_loop_3
	noise_note 12, 4
	noise_note 12, 4
	noise_note 12, 4
	noise_note 4, 4
	noise_note 12, 4
	noise_note 10, 4
	noise_note 9, 4
	noise_note 7, 4
	loop_3 1, music_brightman_noise_loop_4

music_brightman_noise_loop_5:
	channel_flags no_channel_flags_set
	note_ads $A0
	volume 6
	noise_note 12, 4
	noise_note 12, 4
	noise_note 12, 4
	noise_note 12, 4
	volume 9
	noise_note 12, 4
	rest 4
	volume 8
	noise_note 5, 4
	noise_note 9, 4
	volume 9
	noise_note 12, 4
	volume 8
	rest 4
	noise_note 9, 4
	rest 4
	volume 9
	noise_note 12, 4
	volume 8
	rest 4
	noise_note 9, 4
	noise_note 12, 4
	loop_1 2, music_brightman_noise_loop_5

music_brightman_noise_loop_6:
	channel_flags no_channel_flags_set
	noise_note 6, 4
	noise_note 12, 4
	loop_1 3, music_brightman_noise_loop_6
	noise_note 5, 4
	noise_note 8, 4
	rest 4
	noise_note 12, 4
	noise_note 5, 4
	noise_note 9, 4
	noise_note 7, 4
	noise_note 5, 4

music_brightman_noise_loop_7:
	channel_flags no_channel_flags_set
	note_ads $A0
	volume 6
	noise_note 12, 4
	noise_note 12, 4
	noise_note 12, 4
	noise_note 12, 4
	volume 9
	noise_note 12, 4
	rest 4
	volume 8
	noise_note 5, 4
	noise_note 9, 4
	volume 9
	noise_note 12, 4
	volume 8
	rest 4
	noise_note 9, 4
	rest 4
	volume 9
	noise_note 12, 4
	volume 8
	rest 4
	noise_note 9, 4
	noise_note 12, 4
	loop_1 6, music_brightman_noise_loop_7
	noise_note 6, 4
	noise_note 12, 4
	rest 4
	noise_note 12, 4
	noise_note 5, 4
	noise_note 10, 4
	noise_note 5, 4
	noise_note 12, 4
	noise_note 5, 4
	noise_note 12, 4

music_brightman_noise_loop_8:
	channel_flags no_channel_flags_set
	noise_note 6, 4
	loop_1 5, music_brightman_noise_loop_8
	music_jump music_brightman_noise_main
	music_end
